grf
version=1
nRows=19
nColumns=28
inDegrees=yes
endheader
time	ground_force_1_vx	ground_force_1_vy	ground_force_1_vz	ground_force_1_px	ground_force_1_py	ground_force_1_pz	ground_moment_1_mx	ground_moment_1_my	ground_moment_1_mz	ground_force_2_vx	ground_force_2_vy	ground_force_2_vz	ground_force_2_px	ground_force_2_py	ground_force_2_pz	ground_moment_2_mx	ground_moment_2_my	ground_moment_2_mz	ground_force_3_vx	ground_force_3_vy	ground_force_3_vz	ground_force_3_px	ground_force_3_py	ground_force_3_pz	ground_moment_3_mx	ground_moment_3_my	ground_moment_3_mz
1.735000	0.000000	0.000000	0.000000	-0.178361	0.000000	-0.236325	0.000000	0.000000	0.000000	-98.705149	434.719838	13.336956	0.313963	0.000000	-0.380858	-0.000000	0.676023	0.000000	0.000000	0.000000	0.000000	0.806089	0.000000	-0.491611	0.000000	0.000000	0.000000
1.735833	0.000000	0.000000	0.000000	0.111175	-0.000000	0.093150	0.000000	0.000000	0.000000	-99.037550	435.244350	13.792785	0.314201	0.000000	-0.380674	-0.000000	0.684926	0.000000	0.000000	0.000000	0.000000	0.546784	0.000000	-0.110188	0.000000	0.000000	0.000000
1.736667	0.000000	0.000000	0.000000	-0.145719	0.000000	-0.203545	0.000000	0.000000	0.000000	-99.315063	435.775623	14.261906	0.314173	0.000000	-0.380729	-0.000000	0.693967	0.000000	0.000000	0.000000	0.000000	2.816939	0.000000	-2.103369	0.000000	0.000000	0.000000
1.737500	0.000000	0.000000	0.000000	-0.520822	0.000000	-0.951386	0.000000	0.000000	0.000000	-99.538037	436.313573	14.743043	0.314073	0.000000	-0.380739	-0.000000	0.703100	0.000000	0.000000	0.000000	0.000000	1.675575	0.000000	-0.302230	0.000000	0.000000	0.000000
1.738333	0.000000	0.000000	0.000000	-0.469792	-0.000000	0.149734	0.000000	0.000000	0.000000	-99.706964	436.857614	15.234934	0.314090	0.000000	-0.380544	-0.000000	0.712277	0.000000	0.000000	0.000000	0.000000	4.100414	0.000000	-0.426523	0.000000	0.000000	0.000000
1.739167	0.000000	0.000000	0.000000	-0.417810	0.000000	-0.477298	0.000000	0.000000	0.000000	-99.822444	437.406675	15.736355	0.314371	0.000000	-0.380248	-0.000000	0.721445	0.000000	0.000000	0.000000	0.000000	0.896434	0.000000	-0.133854	0.000000	0.000000	0.000000
1.740000	0.000000	0.000000	0.000000	-0.336062	0.000000	-0.431833	0.000000	0.000000	0.000000	-99.885163	437.959203	16.246119	0.314006	0.000000	-0.379893	-0.000000	0.730552	0.000000	0.000000	0.000000	0.000000	1.140751	0.000000	-0.589859	0.000000	0.000000	0.000000
1.740833	0.000000	0.000000	0.000000	-0.242317	0.000000	-0.308594	0.000000	0.000000	0.000000	-99.895890	438.513166	16.763095	0.314093	0.000000	-0.380641	-0.000000	0.739541	0.000000	0.000000	0.000000	0.000000	0.781687	0.000000	-0.188563	0.000000	0.000000	0.000000
1.741667	0.000000	0.000000	0.000000	0.027812	0.000000	-0.363517	0.000000	0.000000	0.000000	-99.855461	439.066058	17.286201	0.314319	0.000000	-0.381052	-0.000000	0.748347	0.000000	0.000000	0.000000	0.000000	4.175626	0.000000	-4.189990	0.000000	0.000000	0.000000
1.742500	0.000000	0.000000	0.000000	-0.980369	0.000000	-0.189292	0.000000	0.000000	0.000000	-99.764760	439.614941	17.814416	0.314453	0.000000	-0.380713	-0.000000	0.756911	0.000000	0.000000	0.000000	0.000000	1.027803	0.000000	-0.379184	0.000000	0.000000	0.000000
1.743333	0.000000	0.000000	0.000000	-0.426460	0.000000	-1.151256	0.000000	0.000000	0.000000	-99.624705	440.156489	18.346782	0.314536	0.000000	-0.381254	-0.000000	0.765175	0.000000	0.000000	0.000000	0.000000	0.978594	0.000000	-0.111276	0.000000	0.000000	0.000000
1.744167	0.000000	0.000000	0.000000	-0.663085	0.000000	-0.928360	0.000000	0.000000	0.000000	-99.436243	440.687046	18.882411	0.314515	0.000000	-0.381164	-0.000000	0.773094	0.000000	0.000000	0.000000	0.000000	0.833699	0.000000	-0.384152	0.000000	0.000000	0.000000
1.745000	0.000000	0.000000	0.000000	-0.077495	0.000000	-0.355644	0.000000	0.000000	0.000000	-99.200362	441.202676	19.420456	0.314890	0.000000	-0.381602	-0.000000	0.780623	0.000000	0.000000	0.000000	0.000000	0.886009	0.000000	-0.466494	0.000000	0.000000	0.000000
1.745833	0.000000	0.000000	0.000000	-0.771984	0.000000	-0.768776	0.000000	0.000000	0.000000	-98.918122	441.699243	19.960097	0.315013	0.000000	-0.381755	-0.000000	0.787723	0.000000	0.000000	0.000000	0.000000	0.999585	0.000000	-0.303640	0.000000	0.000000	0.000000
1.746667	0.000000	0.000000	0.000000	1.413717	-0.000000	3.033933	0.000000	0.000000	0.000000	-98.590672	442.172500	20.500530	0.314683	0.000000	-0.381287	-0.000000	0.794352	0.000000	0.000000	0.000000	0.000000	0.815201	0.000000	-0.077112	0.000000	0.000000	0.000000
1.747500	0.000000	0.000000	0.000000	-0.271945	0.000000	-0.407599	0.000000	0.000000	0.000000	-98.219247	442.618159	21.040971	0.314606	0.000000	-0.380885	-0.000000	0.800476	0.000000	0.000000	0.000000	0.000000	-0.599131	-0.000000	7.582246	0.000000	0.000000	0.000000
1.748333	0.000000	0.000000	0.000000	-0.684529	0.000000	-1.967555	0.000000	0.000000	0.000000	-97.805160	443.031872	21.580651	0.314359	0.000000	-0.381266	-0.000000	0.806062	0.000000	0.000000	0.000000	0.000000	0.894892	0.000000	-2.396906	0.000000	0.000000	0.000000
1.749167	0.000000	0.000000	0.000000	-0.478613	0.000000	-0.969295	0.000000	0.000000	0.000000	-97.349791	443.409259	22.118816	0.314281	0.000000	-0.381457	-0.000000	0.811089	0.000000	0.000000	0.000000	0.000000	0.788410	0.000000	-0.072640	0.000000	0.000000	0.000000
1.750000	0.000000	0.000000	0.000000	-1.143772	0.000000	-0.544244	0.000000	0.000000	0.000000	-96.854599	443.746004	22.654715	0.314497	0.000000	-0.381546	0.000000	0.815538	0.000000	0.000000	0.000000	0.000000	1.121354	0.000000	-0.341126	0.000000	0.000000	0.000000
